<?xml version="1.0" standalone="no"?>
<!DOCTYPE svg PUBLIC "-//W3C//DTD SVG 20010904//EN"
 "http://www.w3.org/TR/2001/REC-SVG-20010904/DTD/svg10.dtd">
<svg version="1.0" xmlns="http://www.w3.org/2000/svg"
 width="500.000000pt" height="500.000000pt" viewBox="0 0 500.000000 500.000000"
 preserveAspectRatio="xMidYMid meet">

<g transform="translate(0.000000,500.000000) scale(0.100000,-0.100000)"
fill="#000000" stroke="none">
<path d="M3030 2085 l0 -375 73 0 c69 0 75 2 85 25 14 30 33 32 56 6 23 -25
100 -44 149 -36 46 8 101 53 128 106 28 55 40 160 29 242 -20 137 -84 208
-189 209 -53 0 -104 -22 -124 -52 -6 -11 -15 -20 -19 -20 -3 0 -4 61 -1 135
l6 135 -97 0 -96 0 0 -375z m304 20 c40 -41 45 -175 8 -225 -25 -33 -72 -38
-97 -10 -15 16 -21 40 -23 96 -5 83 1 116 24 138 20 20 68 21 88 1z"/>
<path d="M662 2241 c-29 -10 -55 -21 -59 -25 -6 -6 35 -104 47 -111 4 -2 24 2
46 10 49 18 138 19 151 3 6 -7 12 -23 15 -34 5 -19 0 -23 -31 -28 -20 -3 -54
-6 -77 -6 -91 0 -169 -41 -203 -107 -16 -31 -14 -119 4 -152 23 -45 71 -79
120 -86 63 -10 137 10 171 46 15 16 31 29 36 29 5 0 16 -16 25 -35 16 -35 18
-35 80 -35 l63 0 0 203 c0 175 -3 207 -19 242 -21 46 -54 79 -94 94 -47 18
-214 13 -275 -8z m205 -328 c-15 -91 -137 -116 -137 -28 0 45 29 65 94 65 l49
0 -6 -37z"/>
<path d="M2087 2246 c-102 -37 -150 -120 -151 -262 -1 -82 2 -97 29 -150 27
-51 38 -63 92 -90 75 -39 167 -52 255 -34 104 20 108 23 108 98 0 57 -2 63
-17 57 -83 -36 -177 -43 -228 -19 -33 16 -62 64 -50 83 4 7 66 11 172 11 l166
0 -6 80 c-9 117 -53 189 -139 224 -46 20 -178 20 -231 2z m171 -123 c12 -10
24 -30 28 -45 l6 -28 -81 0 c-77 0 -81 1 -81 23 0 27 9 40 35 55 30 17 70 14
93 -5z"/>
<path d="M2570 1985 l0 -275 90 0 90 0 0 146 c0 203 18 234 137 234 50 0 49
-1 57 98 l6 72 -53 0 c-56 0 -116 -31 -137 -70 -16 -30 -27 -24 -42 23 l-15
42 -66 3 -67 3 0 -276z"/>
</g>
</svg>
